<svg xmlns="http://www.w3.org/2000/svg" viewBox="0 0 800 900"><defs><linearGradient id="b" x1="0" y1="0" x2="1" y2="1"><stop stop-color="#fff1ef"/><stop offset="1" stop-color="#e8b8b5"/></linearGradient><linearGradient id="c"><stop stop-color="#fffaf7"/><stop offset="1" stop-color="#f3d3d0"/></linearGradient></defs><rect width="800" height="900" fill="url(#b)"/><ellipse cx="400" cy="720" rx="280" ry="55" fill="#fff" opacity=".6"/><rect x="190" y="390" width="420" height="315" rx="38" fill="url(#c)"/><path d="M190 500c85 45 145-40 220 0s135-40 200 0v72c-70-38-130 40-200 0s-135 40-220 0z" fill="#efaaa9"/><ellipse cx="400" cy="395" rx="210" ry="62" fill="#fffaf7"/><g fill="#c8414b"><path d="M270 345c20-35 60-35 80 0-5 35-25 55-40 65-15-10-35-30-40-65z"/><path d="M365 325c20-35 60-35 80 0-5 35-25 55-40 65-15-10-35-30-40-65z"/><path d="M460 345c20-35 60-35 80 0-5 35-25 55-40 65-15-10-35-30-40-65z"/></g><text x="400" y="820" text-anchor="middle" font-family="serif" font-size="42" fill="#6a3537">Gâteau fraise</text></svg>